<svg xmlns="http://www.w3.org/2000/svg" viewBox="0 0 150 118.63"><defs><style>.cls-1{fill:#fbae64;}.cls-2{fill:#f8821d;}.cls-3{fill:#f77c1d;}.cls-4{fill:#f17c12;}</style></defs><title>Recurso 1LogoD-svg-img</title><g id="Capa_2" data-name="Capa 2"><g id="Capa_1-2" data-name="Capa 1"><path class="cls-1" d="M147.7,14.05Q144.64,5.46,139,2.79T124.88.13H79L75.25,13.29h31.9c7.77,0,7.76,11.29,0,11.29H71.93l-1.25,3.76H82.26c7.78,0,7.76,11.29,0,11.29h-16L63,50.91h41.4V46.14s-.38-2,.37-2.76a3.3,3.3,0,0,1,4.38,0l16.44,15.38.23.22a2.86,2.86,0,0,1-1.21,4.8c-4.84,4.52-10.29,9.28-15.13,13.81a2.41,2.41,0,0,1-2.38.25,3,3,0,0,1-3-2.89c0-.21,0-.42,0-.63l0,0a6.08,6.08,0,0,1-.11-2.75v0c0-.09,0-.18.38-.28v-2.8c-.51,0-.59,0-.68-.59H59.34L58,73.48H86.61c7.77,0,7.76,11.29,0,11.29H56.45a11.5,11.5,0,0,1-1.75-.18l-1.91,7.7h16.8c7.77,0,7.76,11.29,0,11.29H49.67l-.38,0L45,118.63H93.61q13.64-1.48,25.16-11.56,11.76-10.06,15-19.55l7.53-25.77,5.17-18.37,3.06-10.07A39,39,0,0,0,147.7,14.05Z"/><path class="cls-2" d="M88.17,26.38c0-.64,0-1.28,0-1.93H71.93l-1.25,3.76H82.26c7.78,0,7.76,11.29,0,11.29h-16L63,50.79H91.75C87.77,43.17,88.13,34.82,88.17,26.38Z"/><path class="cls-3" d="M78.49,6.51a2.9,2.9,0,0,1-1.13-.65l-2.11,7.31H86.71C85.21,9.67,82.12,7.68,78.49,6.51Z"/><path class="cls-4" d="M99.26,107.11c0-4,2.47-7.68,4.69-10.79,2.1-2.95,4.57-5.75,6.24-9a14.31,14.31,0,0,0,.68-11.13l-1.35,1.24a2.41,2.41,0,0,1-2.38.25,3,3,0,0,1-3-2.89c0-.21,0-.42,0-.62,0,0,0,0,0,0a6.07,6.07,0,0,1-.11-2.75v0c0-.1,0-.19.38-.29V68.3c-.51,0-.59,0-.68-.59H59.35L58,73.36H86.61c7.77,0,7.76,11.28,0,11.28H56.45a11.5,11.5,0,0,1-1.75-.18l-1.91,7.71h16.8c7.77,0,7.76,11.28,0,11.28H49.67l-.38,0L45,118.5H93.61a42.26,42.26,0,0,0,12.16-3.24C102.29,113.77,99.27,111.26,99.26,107.11Z"/><path class="cls-4" d="M108.45,67.78l8.56-8-8.56-8Z"/><path class="cls-4" d="M34.23,0,7.4,118.5H0L26.83,0Zm15.9,0L23.31,118.5H14.06L40.88,0ZM68.45,0,41.62,118.5H28.67L55.5,0Z"/></g></g></svg>