<svg xmlns="http://www.w3.org/2000/svg" viewBox="0 0 140 25.89"><defs><style>.cls-1{fill:#999;}.cls-2{fill:#fbae64;}.cls-3{fill:#f8821d;}.cls-4{fill:#f77c1d;}.cls-5{fill:#f17c12;}</style></defs><title>Recurso 1LogoDcompras-svg-img</title><g id="Capa_2" data-name="Capa 2"><g id="Capa_1-2" data-name="Capa 1"><path class="cls-1" d="M33.49,25.24a6.22,6.22,0,0,1-1.87-1.57,7,7,0,0,1-1.2-2.33,6.36,6.36,0,0,1-.18-2.83l.43-2.1A8.83,8.83,0,0,1,32,13.58a12.06,12.06,0,0,1,2.18-2.32,10.79,10.79,0,0,1,2.52-1.58,6.1,6.1,0,0,1,2.43-.57h5l-.82,4H38.34a2.52,2.52,0,0,0-1.19.38,7.17,7.17,0,0,0-1.29,1,8.5,8.5,0,0,0-1.11,1.34,3.94,3.94,0,0,0-.62,1.43l-.08.4a4,4,0,0,0,.05,1.45,5,5,0,0,0,.52,1.36,3.54,3.54,0,0,0,.85,1,1.61,1.61,0,0,0,1,.4h5.08l-.83,4H35.67A4.59,4.59,0,0,1,33.49,25.24Z"/><path class="cls-1" d="M44.44,14.26a11,11,0,0,1,2-2.68,9.73,9.73,0,0,1,2.64-1.84,7.12,7.12,0,0,1,3.07-.68,5.32,5.32,0,0,1,2.75.68,5.16,5.16,0,0,1,1.87,1.84,7,7,0,0,1,.9,2.68,9.21,9.21,0,0,1-.16,3.2,11.56,11.56,0,0,1-3.25,5.88,9.67,9.67,0,0,1-2.65,1.83,7.15,7.15,0,0,1-3,.67A5.23,5.23,0,0,1,46,25.17a5.69,5.69,0,0,1-1.89-1.83,6.89,6.89,0,0,1-1-2.66,8.83,8.83,0,0,1,.12-3.22A11.55,11.55,0,0,1,44.44,14.26Zm2.26,4.92a3.76,3.76,0,0,0,.53,1.43,2.94,2.94,0,0,0,1,1,2.36,2.36,0,0,0,1.27.35,3.52,3.52,0,0,0,1.42-.32,4.9,4.9,0,0,0,1.34-.93,6.45,6.45,0,0,0,1.09-1.41A6.12,6.12,0,0,0,54,17.46a4.87,4.87,0,0,0,.08-1.81,3.67,3.67,0,0,0-.5-1.44,2.76,2.76,0,0,0-1-.94,2.38,2.38,0,0,0-1.26-.34,3.11,3.11,0,0,0-1.43.37,6.11,6.11,0,0,0-1.38,1,6.45,6.45,0,0,0-1.12,1.44,5.6,5.6,0,0,0-.67,1.74A4.37,4.37,0,0,0,46.7,19.18Z"/><path class="cls-1" d="M69.9,10.75a6.34,6.34,0,0,1,2-1.18,6.56,6.56,0,0,1,2.24-.39,4.6,4.6,0,0,1,3.77,1.5,5.55,5.55,0,0,1,.82,4.43L76.54,25.79H73L75.1,15.51a2.61,2.61,0,0,0-.12-1.9A1.71,1.71,0,0,0,73.42,13q-2.1,0-2.85,2.94l-2.06,9.85H64.92L67,15.91a5.59,5.59,0,0,0,.06-1.14,2.76,2.76,0,0,0-.22-.93,1.49,1.49,0,0,0-.53-.61A1.67,1.67,0,0,0,65.4,13q-2.1,0-2.85,2.94l-2.06,9.85H56.9l2.23-10.68a9.13,9.13,0,0,1,1.12-2.59,7.85,7.85,0,0,1,1.65-1.86,7,7,0,0,1,2-1.11,6.94,6.94,0,0,1,2.22-.37A4.47,4.47,0,0,1,69.9,10.75Z"/><path class="cls-1" d="M90.5,9.27a5.05,5.05,0,0,1,2.18.7,3.42,3.42,0,0,1,1.39,1.7,5.35,5.35,0,0,1,0,3.09,7.78,7.78,0,0,1-1.54,3.49,7.19,7.19,0,0,1-2.44,1.9,8.67,8.67,0,0,1-2.87.77c-1,.1-2,.15-2.84.15H83.18l.92-4.38h2.22a8.48,8.48,0,0,0,2.79-.38,1.81,1.81,0,0,0,1.24-1.42,1,1,0,0,0-.18-.89,2.06,2.06,0,0,0-.81-.54,4.35,4.35,0,0,0-1.13-.28c-.42,0-.81-.07-1.16-.07H84L81.32,25.84H77.74L81.23,9.13h6.89A22.1,22.1,0,0,1,90.5,9.27Z"/><path class="cls-1" d="M103.74,23.53a5.86,5.86,0,0,0-.08-.83,3.82,3.82,0,0,0-.26-.95,2.74,2.74,0,0,0-.48-.76,1,1,0,0,0-.72-.32H98.36l.84-4h2.26a8.31,8.31,0,0,0,2.77-.38,1.8,1.8,0,0,0,1.23-1.42,1,1,0,0,0-.17-.89,1.92,1.92,0,0,0-.79-.54,4.33,4.33,0,0,0-1.14-.28c-.41,0-.8-.07-1.15-.07H99.13L96.46,25.84H92.79L96.28,9.13h7c.5,0,1,0,1.55,0a7.62,7.62,0,0,1,1.54.23,5.38,5.38,0,0,1,1.38.55,2.93,2.93,0,0,1,1,1,3.74,3.74,0,0,1,.52,1.53,6.69,6.69,0,0,1-.15,2.2,6.41,6.41,0,0,1-1,2.6,8.15,8.15,0,0,1-1.57,1.59,4.33,4.33,0,0,1,.85,1.92,5.48,5.48,0,0,1,0,2.21l-.61,2.85h-3.6Z"/><path class="cls-1" d="M120.67,9.55a5.56,5.56,0,0,1,1.94,1.11,4.78,4.78,0,0,1,1.27,1.85,5,5,0,0,1,.23,2.6L121.88,25.8h-3.54l1-4.78h-5.91l.9-4.37h5.91l.15-.69a2.78,2.78,0,0,0-.11-1.27,2.36,2.36,0,0,0-.61-.92,2.81,2.81,0,0,0-1-.57,3.09,3.09,0,0,0-1.1-.2,4.18,4.18,0,0,0-2.26.64,4.44,4.44,0,0,0-1.63,1.92L111.58,25.8H108l2.22-10.69a7.14,7.14,0,0,1,1.29-2.55,8.64,8.64,0,0,1,2-1.86A9.38,9.38,0,0,1,116,9.56a8.88,8.88,0,0,1,2.5-.38A6.89,6.89,0,0,1,120.67,9.55Z"/><path class="cls-1" d="M123.18,25.84l.82-4h6.45l1.15,0a6.55,6.55,0,0,0,1.14-.15,2.87,2.87,0,0,0,.91-.34,1,1,0,0,0,.48-.66.7.7,0,0,0-.52-1,9.84,9.84,0,0,0-2.22-.18,20.22,20.22,0,0,1-2.47-.15,5.5,5.5,0,0,1-2.13-.65,3.11,3.11,0,0,1-1.33-1.49,4.44,4.44,0,0,1-.08-2.63,8.05,8.05,0,0,1,1.26-3.11,5.45,5.45,0,0,1,1.89-1.63,6.27,6.27,0,0,1,2.24-.64,22.63,22.63,0,0,1,2.31-.12H140l-.82,4h-6.46l-1.16,0a7.42,7.42,0,0,0-1.13.14,3,3,0,0,0-.91.35.92.92,0,0,0-.45.65c-.12.52.06.83.51,1a10.39,10.39,0,0,0,2.21.17,22.76,22.76,0,0,1,2.48.14,5.78,5.78,0,0,1,2.15.66,3.07,3.07,0,0,1,1.32,1.5,4.45,4.45,0,0,1,.06,2.65,7.78,7.78,0,0,1-1.24,3.09,5.43,5.43,0,0,1-1.89,1.65,6.41,6.41,0,0,1-2.25.64,23.06,23.06,0,0,1-2.32.11Z"/><path class="cls-2" d="M32.23,3.07A4,4,0,0,0,30.34.61,7.2,7.2,0,0,0,27.26,0h-10L16.42,2.9h7a1.23,1.23,0,1,1,0,2.46H15.7l-.27.83H18a1.23,1.23,0,1,1,0,2.46H14.47l-.71,2.46h9v-1s-.08-.43.09-.6a.71.71,0,0,1,.95,0l3.59,3.35,0,0a.62.62,0,0,1,0,.9.65.65,0,0,1-.27.15c-1.05,1-2.24,2-3.3,3a.51.51,0,0,1-.52.06.66.66,0,0,1-.64-.63v-.14h0a1.35,1.35,0,0,1,0-.6h0s0,0,.08-.06v-.62c-.11,0-.13,0-.15-.12H13L12.65,16H18.9a1.23,1.23,0,1,1,0,2.46H12.32a2.53,2.53,0,0,1-.38,0l-.42,1.68h3.67a1.24,1.24,0,1,1,0,2.47H10.76l-.95,3.29H20.43a9.94,9.94,0,0,0,5.49-2.52,10.57,10.57,0,0,0,3.29-4.27l1.64-5.62,1.13-4,.66-2.2A8.41,8.41,0,0,0,32.23,3.07Z"/><path class="cls-3" d="M19.24,5.76c0-.14,0-.28,0-.42H15.7l-.27.82H18a1.23,1.23,0,1,1,0,2.46H14.47l-.71,2.46H20C19.16,9.42,19.23,7.6,19.24,5.76Z"/><path class="cls-4" d="M17.13,1.42a.68.68,0,0,1-.25-.14l-.46,1.59h2.5A2.71,2.71,0,0,0,17.13,1.42Z"/><path class="cls-5" d="M21.66,23.38a4.31,4.31,0,0,1,1-2.36,18,18,0,0,0,1.36-2,3.15,3.15,0,0,0,.15-2.43l-.3.28a.54.54,0,0,1-.52.05.65.65,0,0,1-.64-.63v-.14h0a1.36,1.36,0,0,1,0-.6h0s0,0,.08-.06v-.61c-.11,0-.13,0-.15-.13H13L12.65,16H18.9a1.23,1.23,0,1,1,0,2.46H12.32a2.53,2.53,0,0,1-.38,0l-.42,1.68h3.67a1.24,1.24,0,1,1,0,2.47H10.76l-.95,3.29H20.43a9.35,9.35,0,0,0,2.65-.7A2,2,0,0,1,21.66,23.38Z"/><path class="cls-5" d="M23.67,14.79,25.54,13l-1.87-1.75Z"/><path class="cls-5" d="M7.47,0,1.62,25.86H0L5.86,0Zm3.47,0L5.09,25.86h-2L8.92,0Zm4,0L9.08,25.86H6.26L12.11,0Z"/></g></g></svg>