<svg id="Capa_1" data-name="Capa 1" xmlns="http://www.w3.org/2000/svg" xmlns:xlink="http://www.w3.org/1999/xlink" viewBox="0 0 241.06 61"><defs><style>.cls-1{fill:url(#linear-gradient);}.cls-2{fill:url(#linear-gradient-2);}.cls-3{fill:url(#Degradado_sin_nombre_205);}.cls-4{fill:url(#linear-gradient-3);}.cls-5{fill:url(#linear-gradient-4);}.cls-6{fill:url(#linear-gradient-5);}.cls-7{fill:url(#linear-gradient-6);}.cls-8{fill:url(#linear-gradient-7);}.cls-9{fill:url(#linear-gradient-8);}.cls-10{fill:url(#linear-gradient-9);}.cls-11{fill:url(#linear-gradient-10);}</style><linearGradient id="linear-gradient" x1="199.66" y1="204.67" x2="209.96" y2="204.67" gradientTransform="matrix(1.02, 0.04, -0.05, 1.2, -4.22, -32.28)" gradientUnits="userSpaceOnUse"><stop offset="0" stop-color="#3b0066"/><stop offset="0.39" stop-color="#175fc4"/><stop offset="0.62" stop-color="#009cff"/><stop offset="0.72" stop-color="#00bcf4"/><stop offset="0.84" stop-color="#00e1e7"/><stop offset="0.94" stop-color="#00f7e0"/><stop offset="1" stop-color="#0fd"/></linearGradient><linearGradient id="linear-gradient-2" x1="161.58" y1="183.55" x2="194.08" y2="183.55" gradientTransform="matrix(1, 0.01, -0.01, 1, 15.45, 5.23)" xlink:href="#linear-gradient"/><linearGradient id="Degradado_sin_nombre_205" x1="258.23" y1="231.05" x2="320.5" y2="194.34" gradientUnits="userSpaceOnUse"><stop offset="0" stop-color="#3b0066"/><stop offset="0.16" stop-color="#3a0268"/><stop offset="0.23" stop-color="#38096e"/><stop offset="0.28" stop-color="#341578"/><stop offset="0.31" stop-color="#2f2786"/><stop offset="0.35" stop-color="#273d99"/><stop offset="0.38" stop-color="#1e59b1"/><stop offset="0.41" stop-color="#147acc"/><stop offset="0.43" stop-color="#07a0ec"/><stop offset="0.44" stop-color="#00b7ff"/><stop offset="0.5" stop-color="#1fa1f1"/><stop offset="0.64" stop-color="#6e68cc"/><stop offset="0.76" stop-color="#ac3caf"/><stop offset="0.87" stop-color="#d91b9b"/><stop offset="0.95" stop-color="#f5078e"/><stop offset="1" stop-color="#ff0089"/></linearGradient><linearGradient id="linear-gradient-3" x1="309.95" y1="270.03" x2="384.77" y2="195.22" gradientUnits="userSpaceOnUse"><stop offset="0" stop-color="#3b0066"/><stop offset="0.12" stop-color="#3e0067"/><stop offset="0.23" stop-color="#49016b"/><stop offset="0.33" stop-color="#5a0171"/><stop offset="0.42" stop-color="#73027a"/><stop offset="0.51" stop-color="#930485"/><stop offset="0.6" stop-color="#ba0592"/><stop offset="0.68" stop-color="#e707a2"/><stop offset="0.71" stop-color="#f708a8"/><stop offset="0.74" stop-color="#f93497"/><stop offset="0.77" stop-color="#fa6285"/><stop offset="0.8" stop-color="#fc8975"/><stop offset="0.84" stop-color="#fda968"/><stop offset="0.88" stop-color="#fec25e"/><stop offset="0.91" stop-color="#fed457"/><stop offset="0.95" stop-color="#ffdf53"/><stop offset="1" stop-color="#ffe252"/></linearGradient><linearGradient id="linear-gradient-4" x1="111.55" y1="50.03" x2="177.71" y2="-16.14" xlink:href="#linear-gradient-3"/><linearGradient id="linear-gradient-5" x1="123.98" y1="61.6" x2="187.37" y2="-1.79" xlink:href="#linear-gradient-3"/><linearGradient id="linear-gradient-6" x1="179.34" y1="48.22" x2="243.19" y2="-15.63" gradientUnits="userSpaceOnUse"><stop offset="0" stop-color="#3b0066"/><stop offset="0.16" stop-color="#890381"/><stop offset="0.32" stop-color="#d8079d"/><stop offset="0.4" stop-color="#f708a8"/><stop offset="0.46" stop-color="#f93497"/><stop offset="0.52" stop-color="#fa6285"/><stop offset="0.6" stop-color="#fc8975"/><stop offset="0.67" stop-color="#fda968"/><stop offset="0.74" stop-color="#fec25e"/><stop offset="0.82" stop-color="#fed457"/><stop offset="0.9" stop-color="#ffdf53"/><stop offset="1" stop-color="#ffe252"/></linearGradient><linearGradient id="linear-gradient-7" x1="364.48" y1="245.3" x2="429.9" y2="179.87" xlink:href="#linear-gradient-6"/><linearGradient id="linear-gradient-8" x1="385.39" y1="266.67" x2="450.09" y2="201.97" xlink:href="#linear-gradient-6"/><linearGradient id="linear-gradient-9" x1="-5.02" y1="82.49" x2="99.42" y2="-21.95" gradientUnits="userSpaceOnUse"><stop offset="0" stop-color="#3b0066"/><stop offset="0.07" stop-color="#38096e"/><stop offset="0.18" stop-color="#302283"/><stop offset="0.32" stop-color="#234ba5"/><stop offset="0.48" stop-color="#1183d4"/><stop offset="0.61" stop-color="#00b7ff"/><stop offset="0.65" stop-color="#0caffa"/><stop offset="0.71" stop-color="#2b98eb"/><stop offset="0.79" stop-color="#5e73d3"/><stop offset="0.89" stop-color="#a541b3"/><stop offset="1" stop-color="#fe0189"/><stop offset="1" stop-color="#ff0089"/></linearGradient><linearGradient id="linear-gradient-10" x1="190.36" y1="272.49" x2="269.45" y2="193.4" xlink:href="#linear-gradient-9"/></defs><title>Marca_Nuevo</title><path class="cls-1" d="M198.2,242.44l1.36-31.14c.25-5.61-3.43-10.33-8.22-10.54l-1.83-.08L187.69,242" transform="translate(-175.46 -183.76)"/><path class="cls-2" d="M175.46,193.76l25.22.21a7.29,7.29,0,0,0,7.34-7.21h0l-32.5-.27Z" transform="translate(-175.46 -183.76)"/><path class="cls-3" d="M282.35,183.76l-11.55,31h4.41a8.5,8.5,0,0,0,8-5.7l5.57-15.95,11,31.65H267.28l-7,18.72h0a14.61,14.61,0,0,0,13.77-9.75l.7-2h38.36l-17.8-48Z" transform="translate(-175.46 -183.76)"/><path class="cls-4" d="M365.14,244.76,346,221.82a8.51,8.51,0,0,0-6.53-3.06h-8.2l21,26Z" transform="translate(-175.46 -183.76)"/><path class="cls-5" d="M142.06,0h11a0,0,0,0,1,0,0V24.5a8.5,8.5,0,0,1-8.5,8.5h-2.5a0,0,0,0,1,0,0V0A0,0,0,0,1,142.06,0Z"/><polygon class="cls-6" points="190.12 0 177.45 0 155.95 26 167.72 26 190.12 0"/><rect class="cls-7" x="206.06" width="35" height="8"/><path class="cls-8" d="M413.52,217.76v-8h-21v.5a8.5,8.5,0,0,0-8.5-8.5h-2.5v43h10l0-27Z" transform="translate(-175.46 -183.76)"/><path class="cls-9" d="M416.52,236.76h-7.13a8,8,0,0,0-8,8h15.13Z" transform="translate(-175.46 -183.76)"/><polygon class="cls-10" points="34.06 37.59 42.28 59 46.06 59 46.06 44.39 34.06 15.81 34.06 37.59"/><path class="cls-11" d="M230.52,232.8l14-37.05v48h10v-60h-7.34a8.5,8.5,0,0,0-7.87,5.29l-8.79,21.59Z" transform="translate(-175.46 -183.76)"/></svg>